<?xml version="1.0" encoding="iso-8859-1"?>
<!-- Generator: Adobe Illustrator 16.0.0, SVG Export Plug-In . SVG Version: 6.00 Build 0)  -->
<!DOCTYPE svg PUBLIC "-//W3C//DTD SVG 1.1//EN" "http://www.w3.org/Graphics/SVG/1.1/DTD/svg11.dtd">
<svg version="1.1" id="Capa_1" xmlns="http://www.w3.org/2000/svg" xmlns:xlink="http://www.w3.org/1999/xlink" x="0px" y="0px"
	 width="561.3px" height="561.3px" viewBox="0 0 561.3 561.3" style="enable-background:new 0 0 561.3 561.3;" xml:space="preserve"
	>
<g>
	<g>
		<circle cx="346.289" cy="41.023" r="41.023"/>
		<path d="M390.008,293.249c6.985-10.462-4.633-18.284-4.633-18.284l-38.934-27.836c-3.376-2.061-16.672-11.274-24.939-0.817
			c-5.775,7.569-4.346,15.558,2.353,21.611l26.105,19.359c0.947,0.723,1.167,2.104,0.493,3.084l-15.176,21.932
			c-0.68,0.98-1.669,2.64-2.171,3.72c-14.014,30.094,7.406,40.531,14.358,43.036c1.123,0.406,3.026,0.65,4.217,0.65
			c7.927,0,36.361,0,62.969,0c31.308,0,30.548-19.655,30.548-19.655v-60.454c0,0,0-0.359,0-1.439
			c0-1.081-0.899-13.493-13.493-13.493c-8.84,0-11.255,8.467-11.27,11.7c-0.167,1.181-0.066,3.117-0.066,4.312v23.974
			c0,1.195-0.966,2.161-2.161,2.161h-36.305c-1.19,0-1.511-0.718-0.722-1.611C385.825,299.402,387.829,296.515,390.008,293.249z"/>
		<circle cx="482.44" cy="330.557" r="28.922"/>
		<path d="M511.453,375.357c0-6.259-5.073-11.337-11.337-11.337H329.554c-6.259,0-11.336,5.073-11.336,11.337
			c0,6.258,5.072,11.336,11.336,11.336h170.562C506.375,386.688,511.453,381.615,511.453,375.357z"/>
		<path d="M55.885,364.021h88.85v170.982c0,14.521,11.771,26.297,26.297,26.297s26.297-11.776,26.297-26.297V364.021h71.322
			c5.259,0,8.448-4.154,7.086-9.237l-41.071-153.296c-1.362-5.083,1.176-11.513,5.637-14.296l66.168-41.267l4.834,48.922
			l81.023,62.252c3.041,2.333,6.627,3.466,10.184,3.466c5.021,0,9.988-2.252,13.282-6.536c5.633-7.33,4.256-17.834-3.074-23.466
			l-69.586-53.464l-5.006-51.198c-0.249-2.448-1.047-4.7-2.209-6.698c-0.34-0.674-0.741-1.334-1.286-1.951l-0.211-0.239
			c-0.095-0.115-0.2-0.22-0.296-0.335l-69.003-78.035c-3.486-3.939-8.975-3.763-12.197,0.392l-102.988,124.15
			c-3.222,4.155-7.908,11.341-10.409,15.97L50.864,355.605C48.369,360.233,50.625,364.021,55.885,364.021z"/>
	</g>
</g>
<g>
</g>
<g>
</g>
<g>
</g>
<g>
</g>
<g>
</g>
<g>
</g>
<g>
</g>
<g>
</g>
<g>
</g>
<g>
</g>
<g>
</g>
<g>
</g>
<g>
</g>
<g>
</g>
<g>
</g>
</svg>
